<svg width="38" height="38" viewBox="0 0 38 38" fill="none" xmlns="http://www.w3.org/2000/svg">
    <rect width="38" height="38" fill="transparent" />
    <path fill-rule="evenodd" clip-rule="evenodd"
        d="M19 19C21.7614 19 24 16.5376 24 13.5C24 10.4624 21.7614 8 19 8C16.2386 8 14 10.4624 14 13.5C14 16.5376 16.2386 19 19 19ZM19 16.8C17.3431 16.8 16 15.3225 16 13.5C16 11.6775 17.3431 10.2 19 10.2C20.6569 10.2 22 11.6775 22 13.5C22 15.3225 20.6569 16.8 19 16.8Z"
        fill="#0F0F0F" />
    <path fill-rule="evenodd" clip-rule="evenodd"
        d="M26.1029 21.1087C25.2604 20.2634 23.957 20.0811 22.9161 20.6987C22.7257 20.8117 22.5581 20.9151 22.4036 21.0105C21.9937 21.2635 21.6755 21.4598 21.2654 21.6283C20.75 21.8401 20.0835 22 19 22C17.9268 22 17.2493 21.8491 16.7261 21.6447C16.2635 21.464 15.8982 21.237 15.4168 20.9378C15.323 20.8795 15.2245 20.8183 15.1202 20.7543C14.0759 20.1132 12.7346 20.2622 11.8641 21.1419C11.4844 21.5256 11.0404 22.0219 10.6849 22.5626C10.346 23.0781 10 23.7638 10 24.5V27.0003C10 28.6574 11.3433 30 13 30H25C26.6567 30 28 28.6574 28 27.0003V24.5C28 23.7541 27.6447 23.0592 27.2996 22.5391C26.937 21.9927 26.4852 21.4923 26.1029 21.1087ZM23.9367 22.4187C24.1759 22.2768 24.478 22.3116 24.6863 22.5205C25.0214 22.8568 25.3724 23.2521 25.6331 23.645C25.9113 24.0642 26 24.352 26 24.5V27.0003C26 27.5524 25.5525 28 25 28H13C12.4475 28 12 27.5524 12 27.0003V24.5C12 24.3549 12.0855 24.0729 12.3561 23.6613C12.6102 23.2748 12.9536 22.8844 13.2858 22.5487C13.4941 22.3381 13.8111 22.2974 14.0739 22.4588C14.1566 22.5095 14.2409 22.5621 14.3269 22.6159C14.8094 22.9171 15.3492 23.254 15.9984 23.5076C16.793 23.8181 17.7242 24 19 24C20.3002 24 21.2313 23.8046 22.0254 23.4783C22.6006 23.242 23.1079 22.9282 23.5558 22.6512C23.6879 22.5695 23.8148 22.491 23.9367 22.4187Z"
        fill="#0F0F0F" />
</svg>